<?xml version="1.0" encoding="utf-8"?>
<!-- Generator: Adobe Illustrator 21.0.0, SVG Export Plug-In . SVG Version: 6.00 Build 0)  -->
<svg version="1.1" id="Layer_1" xmlns="http://www.w3.org/2000/svg" xmlns:xlink="http://www.w3.org/1999/xlink" x="0px" y="0px"
	 viewBox="0 0 341.6 84" style="enable-background:new 0 0 341.6 84;" xml:space="preserve">
<style type="text/css">
	.st0{fill-rule:evenodd;clip-rule:evenodd;fill:#29BCD6;}
	.st1{clip-path:url(#SVGID_2_);fill:url(#SVGID_3_);}
	.st2{clip-path:url(#SVGID_5_);fill:url(#SVGID_6_);}
	.st3{filter:url(#Adobe_OpacityMaskFilter);}
	.st4{clip-path:url(#SVGID_8_);fill:url(#SVGID_10_);}
	.st5{clip-path:url(#SVGID_8_);mask:url(#SVGID_9_);fill:url(#SVGID_11_);}
	.st6{clip-path:url(#SVGID_13_);fill:url(#SVGID_14_);}
	.st7{filter:url(#Adobe_OpacityMaskFilter_1_);}
	.st8{clip-path:url(#SVGID_16_);fill:url(#SVGID_18_);}
	.st9{clip-path:url(#SVGID_16_);mask:url(#SVGID_17_);fill:url(#SVGID_19_);}
	.st10{clip-path:url(#SVGID_21_);fill:url(#SVGID_22_);}
	.st11{clip-path:url(#SVGID_24_);fill:url(#SVGID_25_);}
	.st12{clip-path:url(#SVGID_27_);fill:url(#SVGID_28_);}
	.st13{clip-path:url(#SVGID_30_);fill:url(#SVGID_31_);}
	.st14{clip-path:url(#SVGID_33_);fill:url(#SVGID_34_);}
	.st15{clip-path:url(#SVGID_36_);fill:url(#SVGID_37_);}
	.st16{clip-path:url(#SVGID_39_);fill:url(#SVGID_40_);}
	.st17{clip-path:url(#SVGID_42_);fill:url(#SVGID_43_);}
	.st18{clip-path:url(#SVGID_45_);fill:url(#SVGID_46_);}
	.st19{clip-path:url(#SVGID_48_);fill:url(#SVGID_49_);}
	.st20{clip-path:url(#SVGID_51_);fill:url(#SVGID_52_);}
	.st21{clip-path:url(#SVGID_54_);fill:url(#SVGID_55_);}
	.st22{clip-path:url(#SVGID_57_);fill:url(#SVGID_58_);}
	.st23{fill:none;stroke:#29BCD6;stroke-width:0.72;stroke-linecap:round;stroke-linejoin:round;stroke-miterlimit:2.613;}
</style>
<path class="st0" d="M0.2,41.9L41.7,0.4l28.5,28.5L98.7,0.4l41.5,41.5L98.7,83.4L70.2,54.9L41.7,83.4L0.2,41.9z M83.2,41.9
	l15.6,15.6l15.6-15.6L98.7,26.3L83.2,41.9z M26.1,41.9l15.6,15.6l15.6-15.6L41.7,26.3L26.1,41.9z"/>
<g>
	<defs>
		<polygon id="SVGID_1_" points="41.7,26.3 98.7,83.4 41.7,0.4 		"/>
	</defs>
	<clipPath id="SVGID_2_">
		<use xlink:href="#SVGID_1_"  style="overflow:visible;"/>
	</clipPath>
	
		<linearGradient id="SVGID_3_" gradientUnits="userSpaceOnUse" x1="-807.3991" y1="3930.6316" x2="-806.3991" y2="3930.6316" gradientTransform="matrix(-57.0268 0 0 57.0268 -45944.6992 -224109.6094)">
		<stop  offset="0" style="stop-color:#62266B"/>
		<stop  offset="1" style="stop-color:#04BED7"/>
	</linearGradient>
	<rect x="41.7" y="0.4" class="st1" width="57" height="82.9"/>
</g>
<g>
	<defs>
		<polygon id="SVGID_4_" points="98.7,83.4 98.7,57.4 41.7,0.4 		"/>
	</defs>
	<clipPath id="SVGID_5_">
		<use xlink:href="#SVGID_4_"  style="overflow:visible;"/>
	</clipPath>
	
		<linearGradient id="SVGID_6_" gradientUnits="userSpaceOnUse" x1="-788.6009" y1="3799.3684" x2="-787.6009" y2="3799.3684" gradientTransform="matrix(57.0268 0 0 -57.0268 45013.1094 216707.875)">
		<stop  offset="0" style="stop-color:#62266B"/>
		<stop  offset="1" style="stop-color:#04BED7"/>
	</linearGradient>
	<rect x="41.7" y="0.4" class="st2" width="57" height="82.9"/>
</g>
<g>
	<defs>
		<polygon id="SVGID_7_" points="41.7,26.3 60.4,45 73.3,32 41.7,0.4 		"/>
	</defs>
	<clipPath id="SVGID_8_">
		<use xlink:href="#SVGID_7_"  style="overflow:visible;"/>
	</clipPath>
	<defs>
		<filter id="Adobe_OpacityMaskFilter" filterUnits="userSpaceOnUse" x="41.7" y="0.4" width="31.6" height="44.6">
			<feColorMatrix  type="matrix" values="1 0 0 0 0  0 1 0 0 0  0 0 1 0 0  0 0 0 1 0"/>
		</filter>
	</defs>
	<mask maskUnits="userSpaceOnUse" x="41.7" y="0.4" width="31.6" height="44.6" id="SVGID_9_">
		<g class="st3">
			
				<linearGradient id="SVGID_10_" gradientUnits="userSpaceOnUse" x1="-814.9509" y1="3983.3643" x2="-813.951" y2="3983.3643" gradientTransform="matrix(-31.6207 0 0 31.6207 -25695.9785 -125933.9219)">
				<stop  offset="0" style="stop-color:#CCCCCC"/>
				<stop  offset="0.7" style="stop-color:#000000"/>
				<stop  offset="1" style="stop-color:#000000"/>
			</linearGradient>
			<rect x="41.7" y="0.4" class="st4" width="31.6" height="44.6"/>
		</g>
	</mask>
	
		<linearGradient id="SVGID_11_" gradientUnits="userSpaceOnUse" x1="-814.9509" y1="3983.3643" x2="-813.951" y2="3983.3643" gradientTransform="matrix(-31.6207 0 0 31.6207 -25695.9805 -125933.9297)">
		<stop  offset="0" style="stop-color:#22205F"/>
		<stop  offset="0.7" style="stop-color:#22205F"/>
		<stop  offset="1" style="stop-color:#22205F"/>
	</linearGradient>
	<rect x="41.7" y="0.4" class="st5" width="31.6" height="44.6"/>
</g>
<g>
	<defs>
		<polygon id="SVGID_12_" points="41.7,57.4 26.1,41.9 41.7,83.4 98.7,0.4 		"/>
	</defs>
	<clipPath id="SVGID_13_">
		<use xlink:href="#SVGID_12_"  style="overflow:visible;"/>
	</clipPath>
	
		<linearGradient id="SVGID_14_" gradientUnits="userSpaceOnUse" x1="-790.615" y1="3813.4321" x2="-789.615" y2="3813.4321" gradientTransform="matrix(72.5794 0 0 -72.5794 57408.5117 276818.5625)">
		<stop  offset="0" style="stop-color:#62266B"/>
		<stop  offset="1" style="stop-color:#04BED7"/>
	</linearGradient>
	<rect x="26.1" y="0.4" class="st6" width="72.6" height="82.9"/>
</g>
<g>
	<defs>
		<polygon id="SVGID_15_" points="67.1,51.7 98.7,83.4 98.7,57.4 80.1,38.8 		"/>
	</defs>
	<clipPath id="SVGID_16_">
		<use xlink:href="#SVGID_15_"  style="overflow:visible;"/>
	</clipPath>
	<defs>
		<filter id="Adobe_OpacityMaskFilter_1_" filterUnits="userSpaceOnUse" x="67.1" y="38.8" width="31.6" height="44.6">
			<feColorMatrix  type="matrix" values="1 0 0 0 0  0 1 0 0 0  0 0 1 0 0  0 0 0 1 0"/>
		</filter>
	</defs>
	<mask maskUnits="userSpaceOnUse" x="67.1" y="38.8" width="31.6" height="44.6" id="SVGID_17_">
		<g class="st7">
			
				<linearGradient id="SVGID_18_" gradientUnits="userSpaceOnUse" x1="-781.049" y1="3746.6357" x2="-780.0491" y2="3746.6357" gradientTransform="matrix(31.6207 0 0 -31.6207 24764.3906 118532.1953)">
				<stop  offset="0" style="stop-color:#CCCCCC"/>
				<stop  offset="0.7" style="stop-color:#000000"/>
				<stop  offset="1" style="stop-color:#000000"/>
			</linearGradient>
			<rect x="67.1" y="38.8" class="st8" width="31.6" height="44.6"/>
		</g>
	</mask>
	
		<linearGradient id="SVGID_19_" gradientUnits="userSpaceOnUse" x1="-781.049" y1="3746.6357" x2="-780.0491" y2="3746.6357" gradientTransform="matrix(31.6207 0 0 -31.6207 24764.3906 118532.2031)">
		<stop  offset="0" style="stop-color:#22205F"/>
		<stop  offset="0.7" style="stop-color:#22205F"/>
		<stop  offset="1" style="stop-color:#22205F"/>
	</linearGradient>
	<rect x="67.1" y="38.8" class="st9" width="31.6" height="44.6"/>
</g>
<g>
	<defs>
		<polygon id="SVGID_20_" points="41.7,83.4 98.7,26.3 114.3,41.9 98.7,0.4 		"/>
	</defs>
	<clipPath id="SVGID_21_">
		<use xlink:href="#SVGID_20_"  style="overflow:visible;"/>
	</clipPath>
	
		<linearGradient id="SVGID_22_" gradientUnits="userSpaceOnUse" x1="-805.385" y1="3916.5676" x2="-804.385" y2="3916.5676" gradientTransform="matrix(-72.5796 0 0 72.5796 -58340.2461 -284221)">
		<stop  offset="0" style="stop-color:#62266B"/>
		<stop  offset="1" style="stop-color:#04BED7"/>
	</linearGradient>
	<rect x="41.7" y="0.4" class="st10" width="72.6" height="82.9"/>
</g>
<g>
	<defs>
		<polygon id="SVGID_23_" points="0.2,41.9 41.7,83.4 26.1,41.9 		"/>
	</defs>
	<clipPath id="SVGID_24_">
		<use xlink:href="#SVGID_23_"  style="overflow:visible;"/>
	</clipPath>
	
		<linearGradient id="SVGID_25_" gradientUnits="userSpaceOnUse" x1="-853.9374" y1="3906.7527" x2="-852.9374" y2="3906.7527" gradientTransform="matrix(-38.2078 -38.5052 -38.5052 38.2078 117843.4922 -182067.4844)">
		<stop  offset="0" style="stop-color:#62266B"/>
		<stop  offset="1" style="stop-color:#04BED7"/>
	</linearGradient>
	<polygon class="st11" points="20.8,104.1 -20.5,62.5 21.1,21.2 62.4,62.8 	"/>
</g>
<g>
	<defs>
		<polygon id="SVGID_26_" points="98.7,57.4 98.7,83.4 127.2,28.9 		"/>
	</defs>
	<clipPath id="SVGID_27_">
		<use xlink:href="#SVGID_26_"  style="overflow:visible;"/>
	</clipPath>
	
		<linearGradient id="SVGID_28_" gradientUnits="userSpaceOnUse" x1="-729.2421" y1="3874.8469" x2="-728.2421" y2="3874.8469" gradientTransform="matrix(0 54.4339 54.4339 0 -210810.1719 39724.4531)">
		<stop  offset="0" style="stop-color:#62266B"/>
		<stop  offset="1" style="stop-color:#04BED7"/>
	</linearGradient>
	<rect x="98.7" y="28.9" class="st12" width="28.5" height="54.4"/>
</g>
<g>
	<defs>
		<polygon id="SVGID_29_" points="13.2,54.9 41.7,26.3 41.7,0.4 		"/>
	</defs>
	<clipPath id="SVGID_30_">
		<use xlink:href="#SVGID_29_"  style="overflow:visible;"/>
	</clipPath>
	
		<linearGradient id="SVGID_31_" gradientUnits="userSpaceOnUse" x1="-866.7579" y1="3855.1531" x2="-865.7579" y2="3855.1531" gradientTransform="matrix(0 -54.4339 -54.4339 0 209878.5938 -47126.1836)">
		<stop  offset="0" style="stop-color:#62266B"/>
		<stop  offset="1" style="stop-color:#04BED7"/>
	</linearGradient>
	<rect x="13.2" y="0.4" class="st13" width="28.5" height="54.4"/>
</g>
<g>
	<defs>
		<polygon id="SVGID_32_" points="0.2,41.9 13.2,54.9 41.7,26.3 		"/>
	</defs>
	<clipPath id="SVGID_33_">
		<use xlink:href="#SVGID_32_"  style="overflow:visible;"/>
	</clipPath>
	
		<linearGradient id="SVGID_34_" gradientUnits="userSpaceOnUse" x1="-950.8502" y1="3843.1104" x2="-949.8502" y2="3843.1104" gradientTransform="matrix(0 -24.4865 -24.4865 0 94125.0938 -23228.4453)">
		<stop  offset="0" style="stop-color:#62266B"/>
		<stop  offset="1" style="stop-color:#04BED7"/>
	</linearGradient>
	<rect x="0.2" y="26.3" class="st14" width="41.5" height="28.5"/>
</g>
<g>
	<defs>
		<rect id="SVGID_35_" x="182.4" y="33.7" width="4.7" height="19.7"/>
	</defs>
	<clipPath id="SVGID_36_">
		<use xlink:href="#SVGID_35_"  style="overflow:visible;"/>
	</clipPath>
	
		<linearGradient id="SVGID_37_" gradientUnits="userSpaceOnUse" x1="-794.6345" y1="3841.4998" x2="-793.6345" y2="3841.4998" gradientTransform="matrix(159.2648 0 0 -159.2648 126739.6875 611859.25)">
		<stop  offset="0" style="stop-color:#04BED7"/>
		<stop  offset="1" style="stop-color:#62266B"/>
	</linearGradient>
	<rect x="182.4" y="33.7" class="st15" width="4.7" height="19.7"/>
</g>
<g>
	<defs>
		<polygon id="SVGID_38_" points="201.9,33.7 201.9,37.8 208.2,37.8 208.2,53.4 212.9,53.4 212.9,37.8 219.1,37.8 219.1,33.7 		"/>
	</defs>
	<clipPath id="SVGID_39_">
		<use xlink:href="#SVGID_38_"  style="overflow:visible;"/>
	</clipPath>
	
		<linearGradient id="SVGID_40_" gradientUnits="userSpaceOnUse" x1="-797.0797" y1="3858.5737" x2="-796.0797" y2="3858.5737" gradientTransform="matrix(582.4105 0 0 -582.4105 464335.2188 2247317.25)">
		<stop  offset="0" style="stop-color:#04BED7"/>
		<stop  offset="1" style="stop-color:#62266B"/>
	</linearGradient>
	<rect x="201.9" y="33.7" class="st16" width="17.2" height="19.7"/>
</g>
<g>
	<defs>
		<path id="SVGID_41_" d="M238.7,41l2.6,6.2h-5.2L238.7,41z M238.8,33.1l-10.1,20.3h4.7l1.3-2.9h8l1.2,2.9h4.9l-9.8-20.3H238.8z"/>
	</defs>
	<clipPath id="SVGID_42_">
		<use xlink:href="#SVGID_41_"  style="overflow:visible;"/>
	</clipPath>
	
		<linearGradient id="SVGID_43_" gradientUnits="userSpaceOnUse" x1="-794.6346" y1="3841.5" x2="-793.6346" y2="3841.5" gradientTransform="matrix(159.266 0 0 -159.266 126740.6484 611863.625)">
		<stop  offset="0" style="stop-color:#04BED7"/>
		<stop  offset="1" style="stop-color:#62266B"/>
	</linearGradient>
	<rect x="228.7" y="33.1" class="st17" width="20.2" height="20.3"/>
</g>
<g>
	<defs>
		<polygon id="SVGID_44_" points="262.8,33.1 262.8,53.4 267.2,53.4 267.2,42.7 279.5,54.2 279.9,54.2 279.9,33.7 275.6,33.7 
			275.6,44.6 263.3,33.1 		"/>
	</defs>
	<clipPath id="SVGID_45_">
		<use xlink:href="#SVGID_44_"  style="overflow:visible;"/>
	</clipPath>
	
		<linearGradient id="SVGID_46_" gradientUnits="userSpaceOnUse" x1="-794.6345" y1="3841.4998" x2="-793.6345" y2="3841.4998" gradientTransform="matrix(159.2654 0 0 -159.2654 126740.125 611861.4375)">
		<stop  offset="0" style="stop-color:#04BED7"/>
		<stop  offset="1" style="stop-color:#62266B"/>
	</linearGradient>
	<rect x="262.8" y="33.1" class="st18" width="17.1" height="21.1"/>
</g>
<g>
	<defs>
		<polygon id="SVGID_47_" points="294.6,33.7 294.6,37.8 300.9,37.8 300.9,53.4 305.6,53.4 305.6,37.8 311.8,37.8 311.8,33.7 		"/>
	</defs>
	<clipPath id="SVGID_48_">
		<use xlink:href="#SVGID_47_"  style="overflow:visible;"/>
	</clipPath>
	
		<linearGradient id="SVGID_49_" gradientUnits="userSpaceOnUse" x1="-797.0797" y1="3858.5737" x2="-796.0797" y2="3858.5737" gradientTransform="matrix(582.4105 0 0 -582.4105 464088.8438 2247317.25)">
		<stop  offset="0" style="stop-color:#04BED7"/>
		<stop  offset="1" style="stop-color:#62266B"/>
	</linearGradient>
	<rect x="294.6" y="33.7" class="st19" width="17.2" height="19.7"/>
</g>
<g>
	<defs>
		<path id="SVGID_50_" d="M331.4,41l2.6,6.2h-5.2L331.4,41z M331.5,33.1l-10.1,20.3h4.7l1.3-2.9h8l1.2,2.9h4.9l-9.8-20.3H331.5z"/>
	</defs>
	<clipPath id="SVGID_51_">
		<use xlink:href="#SVGID_50_"  style="overflow:visible;"/>
	</clipPath>
	
		<linearGradient id="SVGID_52_" gradientUnits="userSpaceOnUse" x1="-794.6346" y1="3841.5" x2="-793.6346" y2="3841.5" gradientTransform="matrix(159.2659 0 0 -159.2659 126740.5781 611863.25)">
		<stop  offset="0" style="stop-color:#04BED7"/>
		<stop  offset="1" style="stop-color:#62266B"/>
	</linearGradient>
	<rect x="321.4" y="33.1" class="st20" width="20.2" height="20.3"/>
</g>
<g>
	<defs>
		<polygon id="SVGID_53_" points="114.3,41.9 140.2,41.9 98.7,0.4 		"/>
	</defs>
	<clipPath id="SVGID_54_">
		<use xlink:href="#SVGID_53_"  style="overflow:visible;"/>
	</clipPath>
	
		<linearGradient id="SVGID_55_" gradientUnits="userSpaceOnUse" x1="-742.0626" y1="3823.5823" x2="-741.0626" y2="3823.5823" gradientTransform="matrix(38.2078 38.5052 38.5052 -38.2078 -118775.0703 174665.7344)">
		<stop  offset="0" style="stop-color:#62266B"/>
		<stop  offset="1" style="stop-color:#04BED7"/>
	</linearGradient>
	<polygon class="st21" points="119.6,-20.3 160.9,21.3 119.3,62.6 78,21 	"/>
</g>
<g>
	<defs>
		<polygon id="SVGID_56_" points="98.7,57.4 140.2,41.9 127.2,28.9 		"/>
	</defs>
	<clipPath id="SVGID_57_">
		<use xlink:href="#SVGID_56_"  style="overflow:visible;"/>
	</clipPath>
	
		<linearGradient id="SVGID_58_" gradientUnits="userSpaceOnUse" x1="-645.1498" y1="3886.8896" x2="-644.1498" y2="3886.8896" gradientTransform="matrix(0 24.4865 24.4865 0 -95056.6797 15826.7109)">
		<stop  offset="0" style="stop-color:#62266B"/>
		<stop  offset="1" style="stop-color:#04BED7"/>
	</linearGradient>
	<rect x="98.7" y="28.9" class="st22" width="41.5" height="28.5"/>
</g>
<line class="st23" x1="161.5" y1="0.5" x2="161.5" y2="83.3"/>
</svg>
